<svg xmlns="http://www.w3.org/2000/svg" viewBox="0 0 128 128">
  <defs>
    <linearGradient id="g" x1="0" x2="1" y1="0" y2="1">
      <stop offset="0" stop-color="#0b5cff"/>
      <stop offset="1" stop-color="#00c2ff"/>
    </linearGradient>
  </defs>
  <rect width="128" height="128" rx="28" fill="url(#g)"/>
  <path d="M38 86V42h16c8 0 14 1.7 18 5.1 4 3.4 6 8.4 6 15.1 0 6.5-2 11.6-6 15.2-4 3.1-10 4.6-18 4.6H38zm14-12h2c4.8 0 8.4-.8 10.7-2.4 2.3-1.6 3.4-4.1 3.4-7.6 0-3.7-1.1-6.3-3.4-7.9-2.2-1.7-5.8-2.6-10.7-2.6h-2v20.5z" fill="#fff"/>
</svg>